<svg xmlns="http://www.w3.org/2000/svg" viewBox="0 0 171.55 51.93"><defs><style>.cls-1{fill:#e41019;}</style></defs><g id="Capa_2" data-name="Capa 2"><g id="Capa_1-2" data-name="Capa 1"><path class="cls-1" d="M6.67,12.61h.14L12.13,50.3q3.46-.52,7-1l5.18-36.68h.14v36q3.57-.43,7.22-.83V0H20.77L15.91,37.17h-.14L10.91,0H0V51.93H2.33l4.34-.76Z"/><path class="cls-1" d="M52.12,3.82H42.59l-7.3,42.42h6.53l1.28-8.3h8v-.12L52.35,46c2.3-.14,4.63-.27,7-.38ZM43.93,32.18l3.07-21h.13l3.14,21Z"/><path class="cls-1" d="M69.85,28.06h2.43a4.35,4.35,0,0,1,3.43,1.16c.66.76,1,2.12,1,4.06V41a26.35,26.35,0,0,0,.13,3.27,5.53,5.53,0,0,0,.16.79q3.53,0,7.08-.05a5.82,5.82,0,0,1-.2-1,25.86,25.86,0,0,1-.13-2.94V33.64a14.12,14.12,0,0,0-1.06-6,5.44,5.44,0,0,0-3.61-3v-.12q4.61-1.76,4.6-8.36V13.58c0-3.31-.83-5.77-2.49-7.36s-4.31-2.4-7.94-2.4H62.81V45.49q3.5-.15,7-.24Zm0-18.18h3.2a3.38,3.38,0,0,1,2.72,1,5.17,5.17,0,0,1,.86,3.34v3.27a4.68,4.68,0,0,1-1,3.45,4.37,4.37,0,0,1-3.17,1H69.85Z"/><path class="cls-1" d="M95.64,27.17h9.09V21.26H95.64V9.73h11.59V3.82H88.6V45.05q3.54,0,7,.11Z"/><path class="cls-1" d="M95.64,45.2v0q-3.49-.07-7-.11v.15Z"/><path class="cls-1" d="M129.24,46.24V40.18H117.66V3.82h-7V45.69c3.12.15,6.21.34,9.27.55Z"/><path class="cls-1" d="M139.67,3.82h-7V47.29q3.56.35,7,.73Z"/><path class="cls-1" d="M156.86,33.83H157l5.7,17.41c1.34.22,2.66.46,4,.69h4.86l-9.42-26.56L171.1,0h-7.71l-5.64,16.77h-.15L152.11,0H143.5l9,25.37-8.22,23.19q3.7.45,7.33,1Z"/></g></g></svg>